<?xml version="1.0" encoding="UTF-8" standalone="no"?>
<!DOCTYPE svg PUBLIC "-//W3C//DTD SVG 1.1//EN"
 "http://www.w3.org/Graphics/SVG/1.1/DTD/svg11.dtd">
<!-- Generated by graphviz version 2.43.0 (0)
 -->
<!-- Title: world Pages: 1 -->
<svg width="556pt" height="608pt"
 viewBox="0.00 0.00 556.00 608.00" xmlns="http://www.w3.org/2000/svg" xmlns:xlink="http://www.w3.org/1999/xlink">
<g id="graph0" class="graph" transform="scale(1 1) rotate(0) translate(4 604)">
<title>world</title>
<polygon fill="white" stroke="transparent" points="-4,4 -4,-604 552,-604 552,4 -4,4"/>
<text text-anchor="middle" x="274" y="-584.8" font-family="Monospace" font-size="14.00">Realtime Data (205.198.115.0/24)</text>
<g id="clust1" class="cluster">
<title>cluster_origins</title>
<polygon fill="palegreen" stroke="palegreen" points="8,-130 8,-205 107,-205 107,-130 8,-130"/>
<text text-anchor="middle" x="57.5" y="-189.8" font-family="Monospace" font-size="14.00">Origins</text>
</g>
<g id="clust2" class="cluster">
<title>cluster_t1isp</title>
<polygon fill="lightblue" stroke="lightblue" points="348,-8 348,-569 540,-569 540,-8 348,-8"/>
<text text-anchor="middle" x="444" y="-553.8" font-family="Monospace" font-size="14.00">Tier 1 ISPs</text>
</g>
<!-- AS153560 -->
<g id="node1" class="node">
<title>AS153560</title>
<g id="a_node1"><a xlink:href="/search?q=AS153560" xlink:title="202208375N">
<polygon fill="white" stroke="limegreen" stroke-width="3" points="99,-174 16,-174 16,-138 99,-138 99,-174"/>
<text text-anchor="start" x="24" y="-157.8" font-family="Monospace" font-weight="bold" font-size="14.00">AS153560</text>
<text text-anchor="start" x="27" y="-147" font-family="Monospace" font-size="10.00">202208375N</text>
</a>
</g>
</g>
<!-- AS398704 -->
<g id="node17" class="node">
<title>AS398704</title>
<g id="a_node17"><a xlink:href="/search?q=AS398704" xlink:title="STACKS INC">
<polygon fill="none" stroke="black" points="218,-174 135,-174 135,-138 218,-138 218,-174"/>
<text text-anchor="start" x="143" y="-157.8" font-family="Monospace" font-weight="bold" font-size="14.00">AS398704</text>
<text text-anchor="start" x="158" y="-147" font-family="Monospace" font-size="10.00">STACKS</text>
</a>
</g>
</g>
<!-- AS153560&#45;&gt;AS398704 -->
<g id="edge20" class="edge">
<title>AS153560&#45;&gt;AS398704</title>
<path fill="none" stroke="black" d="M99.12,-156C99.12,-156 124.7,-156 124.7,-156"/>
<polygon fill="black" stroke="black" points="124.7,-159.5 134.7,-156 124.7,-152.5 124.7,-159.5"/>
</g>
<!-- AS174 -->
<g id="node2" class="node">
<title>AS174</title>
<g id="a_node2"><a xlink:href="/search?q=AS174" xlink:title="Cogent Communications, LLC">
<polygon fill="white" stroke="#005ea5" stroke-width="3" points="524,-322 466,-322 466,-286 524,-286 524,-322"/>
<text text-anchor="start" x="474" y="-305.8" font-family="Monospace" font-weight="bold" font-size="14.00">AS174</text>
<text text-anchor="start" x="476.5" y="-295" font-family="Monospace" font-size="10.00">Cogent</text>
</a>
</g>
</g>
<!-- AS1299 -->
<g id="node3" class="node">
<title>AS1299</title>
<g id="a_node3"><a xlink:href="/search?q=AS1299" xlink:title="Arelion (fka. Telia Carrier)">
<polygon fill="white" stroke="#005ea5" stroke-width="3" points="422,-282 356,-282 356,-246 422,-246 422,-282"/>
<text text-anchor="start" x="364" y="-265.8" font-family="Monospace" font-weight="bold" font-size="14.00">AS1299</text>
<text text-anchor="start" x="367.5" y="-255" font-family="Monospace" font-size="10.00">Arelion</text>
</a>
</g>
</g>
<!-- AS1299&#45;&gt;AS174 -->
<g id="edge6" class="edge">
<title>AS1299&#45;&gt;AS174</title>
<path fill="none" stroke="black" d="M422.25,-279.67C453.33,-279.67 495,-279.67 495,-279.67 495,-279.67 495,-280.28 495,-280.28"/>
<polygon fill="black" stroke="black" points="491.5,-275.81 495,-285.81 498.5,-275.81 491.5,-275.81"/>
</g>
<!-- AS2914 -->
<g id="node4" class="node">
<title>AS2914</title>
<g id="a_node4"><a xlink:href="/search?q=AS2914" xlink:title="NTT America, Inc.">
<polygon fill="white" stroke="#005ea5" stroke-width="3" points="528,-106 462,-106 462,-70 528,-70 528,-106"/>
<text text-anchor="start" x="470" y="-89.8" font-family="Monospace" font-weight="bold" font-size="14.00">AS2914</text>
<text text-anchor="start" x="485.5" y="-79" font-family="Monospace" font-size="10.00">NTT</text>
</a>
</g>
</g>
<!-- AS1299&#45;&gt;AS2914 -->
<g id="edge7" class="edge">
<title>AS1299&#45;&gt;AS2914</title>
<path fill="none" stroke="black" d="M422.26,-253.33C432.91,-253.33 442,-253.33 442,-253.33 442,-253.33 442,-97 442,-97 442,-97 451.74,-97 451.74,-97"/>
<polygon fill="black" stroke="black" points="451.74,-100.5 461.74,-97 451.74,-93.5 451.74,-100.5"/>
</g>
<!-- AS3257 -->
<g id="node5" class="node">
<title>AS3257</title>
<g id="a_node5"><a xlink:href="/search?q=AS3257" xlink:title="GTT Communications Inc.">
<polygon fill="white" stroke="#005ea5" stroke-width="3" points="528,-214 462,-214 462,-178 528,-178 528,-214"/>
<text text-anchor="start" x="470" y="-197.8" font-family="Monospace" font-weight="bold" font-size="14.00">AS3257</text>
<text text-anchor="start" x="485.5" y="-187" font-family="Monospace" font-size="10.00">GTT</text>
</a>
</g>
</g>
<!-- AS1299&#45;&gt;AS3257 -->
<g id="edge15" class="edge">
<title>AS1299&#45;&gt;AS3257</title>
<path fill="none" stroke="black" d="M422.11,-260.67C438.99,-260.67 456,-260.67 456,-260.67 456,-260.67 456,-210.33 456,-210.33 456,-210.33 456.58,-210.33 456.58,-210.33"/>
<polygon fill="black" stroke="black" points="451.75,-213.83 461.75,-210.33 451.75,-206.83 451.75,-213.83"/>
</g>
<!-- AS3356 -->
<g id="node7" class="node">
<title>AS3356</title>
<g id="a_node7"><a xlink:href="/search?q=AS3356" xlink:title="Lumen (Level 3)">
<polygon fill="white" stroke="#005ea5" stroke-width="3" points="528,-160 462,-160 462,-124 528,-124 528,-160"/>
<text text-anchor="start" x="470" y="-143.8" font-family="Monospace" font-weight="bold" font-size="14.00">AS3356</text>
<text text-anchor="start" x="479.5" y="-133" font-family="Monospace" font-size="10.00">Lumen</text>
</a>
</g>
</g>
<!-- AS1299&#45;&gt;AS3356 -->
<g id="edge4" class="edge">
<title>AS1299&#45;&gt;AS3356</title>
<path fill="none" stroke="black" d="M422.12,-257C437.74,-257 453,-257 453,-257 453,-257 453,-152.67 453,-152.67 453,-152.67 453.89,-152.67 453.89,-152.67"/>
<polygon fill="black" stroke="black" points="451.91,-156.17 461.91,-152.67 451.91,-149.17 451.91,-156.17"/>
</g>
<!-- AS3491 -->
<g id="node8" class="node">
<title>AS3491</title>
<g id="a_node8"><a xlink:href="/search?q=AS3491" xlink:title="PCCW Global, Inc.">
<polygon fill="white" stroke="#005ea5" stroke-width="3" points="528,-52 462,-52 462,-16 528,-16 528,-52"/>
<text text-anchor="start" x="470" y="-35.8" font-family="Monospace" font-weight="bold" font-size="14.00">AS3491</text>
<text text-anchor="start" x="482.5" y="-25" font-family="Monospace" font-size="10.00">PCCW</text>
</a>
</g>
</g>
<!-- AS1299&#45;&gt;AS3491 -->
<g id="edge25" class="edge">
<title>AS1299&#45;&gt;AS3491</title>
<path fill="none" stroke="black" d="M422.18,-249.67C428.92,-249.67 434,-249.67 434,-249.67 434,-249.67 434,-43 434,-43 434,-43 451.64,-43 451.64,-43"/>
<polygon fill="black" stroke="black" points="451.64,-46.5 461.64,-43 451.64,-39.5 451.64,-46.5"/>
</g>
<!-- AS5511 -->
<g id="node9" class="node">
<title>AS5511</title>
<g id="a_node9"><a xlink:href="/search?q=AS5511" xlink:title="Orange S.A.">
<polygon fill="white" stroke="#005ea5" stroke-width="3" points="528,-376 462,-376 462,-340 528,-340 528,-376"/>
<text text-anchor="start" x="470" y="-359.8" font-family="Monospace" font-weight="bold" font-size="14.00">AS5511</text>
<text text-anchor="start" x="476.5" y="-349" font-family="Monospace" font-size="10.00">Orange</text>
</a>
</g>
</g>
<!-- AS1299&#45;&gt;AS5511 -->
<g id="edge1" class="edge">
<title>AS1299&#45;&gt;AS5511</title>
<path fill="none" stroke="black" d="M422.22,-270.33C434.28,-270.33 445,-270.33 445,-270.33 445,-270.33 445,-358 445,-358 445,-358 451.93,-358 451.93,-358"/>
<polygon fill="black" stroke="black" points="451.93,-361.5 461.93,-358 451.93,-354.5 451.93,-361.5"/>
</g>
<!-- AS6762 -->
<g id="node12" class="node">
<title>AS6762</title>
<g id="a_node12"><a xlink:href="/search?q=AS6762" xlink:title="Telecom Italia Sparkle (Seabone)">
<polygon fill="white" stroke="#005ea5" stroke-width="3" points="528,-268 462,-268 462,-232 528,-232 528,-268"/>
<text text-anchor="start" x="470" y="-251.8" font-family="Monospace" font-weight="bold" font-size="14.00">AS6762</text>
<text text-anchor="start" x="473.5" y="-241" font-family="Monospace" font-size="10.00">Sparkle</text>
</a>
</g>
</g>
<!-- AS1299&#45;&gt;AS6762 -->
<g id="edge18" class="edge">
<title>AS1299&#45;&gt;AS6762</title>
<path fill="none" stroke="black" d="M422.25,-264.33C422.25,-264.33 451.87,-264.33 451.87,-264.33"/>
<polygon fill="black" stroke="black" points="451.87,-267.83 461.87,-264.33 451.87,-260.83 451.87,-267.83"/>
</g>
<!-- AS6830 -->
<g id="node13" class="node">
<title>AS6830</title>
<g id="a_node13"><a xlink:href="/search?q=AS6830" xlink:title="Liberty Global Europe Holding B.V.">
<polygon fill="white" stroke="#005ea5" stroke-width="3" points="528,-430 462,-430 462,-394 528,-394 528,-430"/>
<text text-anchor="start" x="470" y="-413.8" font-family="Monospace" font-weight="bold" font-size="14.00">AS6830</text>
<text text-anchor="start" x="473.5" y="-403" font-family="Monospace" font-size="10.00">Liberty</text>
</a>
</g>
</g>
<!-- AS1299&#45;&gt;AS6830 -->
<g id="edge24" class="edge">
<title>AS1299&#45;&gt;AS6830</title>
<path fill="none" stroke="black" d="M422.15,-272.67C429.93,-272.67 436,-272.67 436,-272.67 436,-272.67 436,-412 436,-412 436,-412 451.71,-412 451.71,-412"/>
<polygon fill="black" stroke="black" points="451.71,-415.5 461.71,-412 451.71,-408.5 451.71,-415.5"/>
</g>
<!-- AS7018 -->
<g id="node14" class="node">
<title>AS7018</title>
<g id="a_node14"><a xlink:href="/search?q=AS7018" xlink:title="AT&amp;T Enterprises, LLC">
<polygon fill="white" stroke="#005ea5" stroke-width="3" points="528,-484 462,-484 462,-448 528,-448 528,-484"/>
<text text-anchor="start" x="470" y="-467.8" font-family="Monospace" font-weight="bold" font-size="14.00">AS7018</text>
<text text-anchor="start" x="482.5" y="-457" font-family="Monospace" font-size="10.00">AT&amp;T</text>
</a>
</g>
</g>
<!-- AS1299&#45;&gt;AS7018 -->
<g id="edge3" class="edge">
<title>AS1299&#45;&gt;AS7018</title>
<path fill="none" stroke="black" d="M422.25,-275C425.71,-275 428,-275 428,-275 428,-275 428,-466 428,-466 428,-466 451.89,-466 451.89,-466"/>
<polygon fill="black" stroke="black" points="451.89,-469.5 461.89,-466 451.89,-462.5 451.89,-469.5"/>
</g>
<!-- AS12956 -->
<g id="node15" class="node">
<title>AS12956</title>
<g id="a_node15"><a xlink:href="/search?q=AS12956" xlink:title="Telxius (Telefonica Global)">
<polygon fill="white" stroke="#005ea5" stroke-width="3" points="532,-538 458,-538 458,-502 532,-502 532,-538"/>
<text text-anchor="start" x="466" y="-521.8" font-family="Monospace" font-weight="bold" font-size="14.00">AS12956</text>
<text text-anchor="start" x="473.5" y="-511" font-family="Monospace" font-size="10.00">Telxius</text>
</a>
</g>
</g>
<!-- AS1299&#45;&gt;AS12956 -->
<g id="edge9" class="edge">
<title>AS1299&#45;&gt;AS12956</title>
<path fill="none" stroke="black" d="M422.18,-277.33C423.94,-277.33 425,-277.33 425,-277.33 425,-277.33 425,-520 425,-520 425,-520 447.95,-520 447.95,-520"/>
<polygon fill="black" stroke="black" points="447.95,-523.5 457.95,-520 447.95,-516.5 447.95,-523.5"/>
</g>
<!-- AS3320 -->
<g id="node6" class="node">
<title>AS3320</title>
<g id="a_node6"><a xlink:href="/search?q=AS3320" xlink:title="Deutsche Telekom AG">
<polygon fill="white" stroke="#005ea5" stroke-width="3" points="422,-174 356,-174 356,-138 422,-138 422,-174"/>
<text text-anchor="start" x="364" y="-157.8" font-family="Monospace" font-weight="bold" font-size="14.00">AS3320</text>
<text text-anchor="start" x="376.5" y="-147" font-family="Monospace" font-size="10.00">DTAG</text>
</a>
</g>
</g>
<!-- AS6453 -->
<g id="node10" class="node">
<title>AS6453</title>
<g id="a_node10"><a xlink:href="/search?q=AS6453" xlink:title="TATA Communications (America) Inc">
<polygon fill="white" stroke="#005ea5" stroke-width="3" points="422,-336 356,-336 356,-300 422,-300 422,-336"/>
<text text-anchor="start" x="364" y="-319.8" font-family="Monospace" font-weight="bold" font-size="14.00">AS6453</text>
<text text-anchor="start" x="376.5" y="-309" font-family="Monospace" font-size="10.00">TATA</text>
</a>
</g>
</g>
<!-- AS6461 -->
<g id="node11" class="node">
<title>AS6461</title>
<g id="a_node11"><a xlink:href="/search?q=AS6461" xlink:title="Zayo Bandwidth">
<polygon fill="white" stroke="#005ea5" stroke-width="3" points="422,-228 356,-228 356,-192 422,-192 422,-228"/>
<text text-anchor="start" x="364" y="-211.8" font-family="Monospace" font-weight="bold" font-size="14.00">AS6461</text>
<text text-anchor="start" x="376.5" y="-201" font-family="Monospace" font-size="10.00">Zayo</text>
</a>
</g>
</g>
<!-- AS6461&#45;&gt;AS174 -->
<g id="edge5" class="edge">
<title>AS6461&#45;&gt;AS174</title>
<path fill="none" stroke="black" d="M422.07,-218.67C435.09,-218.67 447,-218.67 447,-218.67 447,-218.67 447,-293 447,-293 447,-293 455.97,-293 455.97,-293"/>
<polygon fill="black" stroke="black" points="455.97,-296.5 465.97,-293 455.97,-289.5 455.97,-296.5"/>
</g>
<!-- AS6461&#45;&gt;AS2914 -->
<g id="edge22" class="edge">
<title>AS6461&#45;&gt;AS2914</title>
<path fill="none" stroke="black" d="M422.07,-199.33C431.37,-199.33 439,-199.33 439,-199.33 439,-199.33 439,-88 439,-88 439,-88 451.78,-88 451.78,-88"/>
<polygon fill="black" stroke="black" points="451.78,-91.5 461.78,-88 451.78,-84.5 451.78,-91.5"/>
</g>
<!-- AS6461&#45;&gt;AS3257 -->
<g id="edge23" class="edge">
<title>AS6461&#45;&gt;AS3257</title>
<path fill="none" stroke="black" d="M422.25,-206.67C422.25,-206.67 451.87,-206.67 451.87,-206.67"/>
<polygon fill="black" stroke="black" points="451.87,-210.17 461.87,-206.67 451.87,-203.17 451.87,-210.17"/>
</g>
<!-- AS6461&#45;&gt;AS3356 -->
<g id="edge2" class="edge">
<title>AS6461&#45;&gt;AS3356</title>
<path fill="none" stroke="black" d="M422.36,-203C436.6,-203 450,-203 450,-203 450,-203 450,-145.33 450,-145.33 450,-145.33 451.82,-145.33 451.82,-145.33"/>
<polygon fill="black" stroke="black" points="451.82,-148.83 461.82,-145.33 451.82,-141.83 451.82,-148.83"/>
</g>
<!-- AS6461&#45;&gt;AS3491 -->
<g id="edge11" class="edge">
<title>AS6461&#45;&gt;AS3491</title>
<path fill="none" stroke="black" d="M422.09,-195.67C427.3,-195.67 431,-195.67 431,-195.67 431,-195.67 431,-34 431,-34 431,-34 451.88,-34 451.88,-34"/>
<polygon fill="black" stroke="black" points="451.88,-37.5 461.88,-34 451.88,-30.5 451.88,-37.5"/>
</g>
<!-- AS6461&#45;&gt;AS6762 -->
<g id="edge19" class="edge">
<title>AS6461&#45;&gt;AS6762</title>
<path fill="none" stroke="black" d="M422.25,-223.33C453.33,-223.33 495,-223.33 495,-223.33 495,-223.33 495,-224.18 495,-224.18"/>
<polygon fill="black" stroke="black" points="491.5,-221.77 495,-231.77 498.5,-221.77 491.5,-221.77"/>
</g>
<!-- AS7473 -->
<g id="node16" class="node">
<title>AS7473</title>
<g id="a_node16"><a xlink:href="/search?q=AS7473" xlink:title="Singapore Telecommunications Ltd">
<polygon fill="none" stroke="black" points="320,-174 254,-174 254,-138 320,-138 320,-174"/>
<text text-anchor="start" x="262" y="-157.8" font-family="Monospace" font-weight="bold" font-size="14.00">AS7473</text>
<text text-anchor="start" x="265.5" y="-147" font-family="Monospace" font-size="10.00">Singtel</text>
</a>
</g>
</g>
<!-- AS7473&#45;&gt;AS1299 -->
<g id="edge16" class="edge">
<title>AS7473&#45;&gt;AS1299</title>
<path fill="none" stroke="black" d="M287,-174.32C287,-205.13 287,-264 287,-264 287,-264 345.88,-264 345.88,-264"/>
<polygon fill="black" stroke="black" points="345.88,-267.5 355.88,-264 345.88,-260.5 345.88,-267.5"/>
</g>
<!-- AS7473&#45;&gt;AS2914 -->
<g id="edge8" class="edge">
<title>AS7473&#45;&gt;AS2914</title>
<path fill="none" stroke="black" d="M287,-137.75C287,-114.98 287,-79 287,-79 287,-79 451.58,-79 451.58,-79"/>
<polygon fill="black" stroke="black" points="451.58,-82.5 461.58,-79 451.58,-75.5 451.58,-82.5"/>
</g>
<!-- AS7473&#45;&gt;AS3320 -->
<g id="edge12" class="edge">
<title>AS7473&#45;&gt;AS3320</title>
<path fill="none" stroke="black" d="M320.12,-156C320.12,-156 345.7,-156 345.7,-156"/>
<polygon fill="black" stroke="black" points="345.7,-159.5 355.7,-156 345.7,-152.5 345.7,-159.5"/>
</g>
<!-- AS7473&#45;&gt;AS3356 -->
<g id="edge10" class="edge">
<title>AS7473&#45;&gt;AS3356</title>
<path fill="none" stroke="black" d="M304,-137.83C304,-133.95 304,-131 304,-131 304,-131 451.73,-131 451.73,-131"/>
<polygon fill="black" stroke="black" points="451.73,-134.5 461.73,-131 451.73,-127.5 451.73,-134.5"/>
</g>
<!-- AS7473&#45;&gt;AS3491 -->
<g id="edge14" class="edge">
<title>AS7473&#45;&gt;AS3491</title>
<path fill="none" stroke="black" d="M271,-137.79C271,-101.79 271,-25 271,-25 271,-25 451.95,-25 451.95,-25"/>
<polygon fill="black" stroke="black" points="451.95,-28.5 461.95,-25 451.95,-21.5 451.95,-28.5"/>
</g>
<!-- AS7473&#45;&gt;AS6453 -->
<g id="edge21" class="edge">
<title>AS7473&#45;&gt;AS6453</title>
<path fill="none" stroke="black" d="M271,-174.27C271,-216.64 271,-318 271,-318 271,-318 345.82,-318 345.82,-318"/>
<polygon fill="black" stroke="black" points="345.82,-321.5 355.82,-318 345.82,-314.5 345.82,-321.5"/>
</g>
<!-- AS7473&#45;&gt;AS6461 -->
<g id="edge13" class="edge">
<title>AS7473&#45;&gt;AS6461</title>
<path fill="none" stroke="black" d="M304,-174.28C304,-189.95 304,-210 304,-210 304,-210 345.89,-210 345.89,-210"/>
<polygon fill="black" stroke="black" points="345.89,-213.5 355.89,-210 345.89,-206.5 345.89,-213.5"/>
</g>
<!-- AS398704&#45;&gt;AS7473 -->
<g id="edge17" class="edge">
<title>AS398704&#45;&gt;AS7473</title>
<path fill="none" stroke="black" d="M218.28,-156C218.28,-156 243.77,-156 243.77,-156"/>
<polygon fill="black" stroke="black" points="243.77,-159.5 253.77,-156 243.77,-152.5 243.77,-159.5"/>
</g>
</g>
</svg>
